<svg width="28" height="28" viewBox="0 0 28 28" fill="none" xmlns="http://www.w3.org/2000/svg">
<path fill-rule="evenodd" clip-rule="evenodd" d="M14 0C6.26801 0 0 6.26801 0 14C0 21.732 6.26801 28 14 28C21.732 28 28 21.732 28 14C28 6.26801 21.732 0 14 0ZM10.9219 6.57831C11.7183 6.54207 11.9728 6.5332 14.0007 6.5332H13.9983C16.0268 6.5332 16.2804 6.54207 17.0768 6.57831C17.8717 6.61472 18.4146 6.74056 18.8906 6.92521C19.3822 7.11576 19.7975 7.37088 20.2129 7.78622C20.6282 8.20124 20.8833 8.61782 21.0746 9.10892C21.2582 9.58368 21.3842 10.1263 21.4215 10.9212C21.4573 11.7176 21.4666 11.9721 21.4666 13.9999C21.4666 16.0278 21.4573 16.2817 21.4215 17.0781C21.3842 17.8727 21.2582 18.4154 21.0746 18.8904C20.8833 19.3813 20.6282 19.7979 20.2129 20.2129C19.798 20.6282 19.382 20.884 18.8911 21.0747C18.416 21.2593 17.8728 21.3852 17.0779 21.4216C16.2815 21.4578 16.0277 21.4667 13.9997 21.4667C11.9721 21.4667 11.7177 21.4578 10.9213 21.4216C10.1265 21.3852 9.58379 21.2593 9.10872 21.0747C8.61794 20.884 8.20135 20.6282 7.78648 20.2129C7.3713 19.7979 7.11619 19.3813 6.92532 18.8902C6.74083 18.4154 6.61498 17.8729 6.57843 17.078C6.54234 16.2815 6.53332 16.0278 6.53332 13.9999C6.53332 11.9721 6.54265 11.7175 6.57827 10.921C6.61405 10.1264 6.74005 9.58368 6.92516 9.10876C7.1165 8.61782 7.37161 8.20124 7.78695 7.78622C8.20198 7.37103 8.61856 7.11592 9.10965 6.92521C9.58441 6.74056 10.127 6.61472 10.9219 6.57831Z" fill="#373F51"/>
<path fill-rule="evenodd" clip-rule="evenodd" d="M13.3303 7.87906C13.4603 7.87886 13.6002 7.87892 13.7512 7.87899L14.0001 7.87906C15.9937 7.87906 16.23 7.88622 17.0173 7.922C17.7453 7.95529 18.1404 8.07693 18.4036 8.17913C18.752 8.31447 19.0005 8.47625 19.2616 8.73758C19.523 8.99892 19.6848 9.24781 19.8204 9.59626C19.9226 9.85915 20.0444 10.2543 20.0775 10.9823C20.1133 11.7694 20.1211 12.0058 20.1211 13.9985C20.1211 15.9912 20.1133 16.2277 20.0775 17.0148C20.0443 17.7428 19.9226 18.1379 19.8204 18.4008C19.6851 18.7492 19.523 18.9974 19.2616 19.2585C19.0003 19.5199 18.7522 19.6817 18.4036 19.817C18.1407 19.9197 17.7453 20.041 17.0173 20.0743C16.2301 20.1101 15.9937 20.1178 14.0001 20.1178C12.0063 20.1178 11.77 20.1101 10.9829 20.0743C10.2549 20.0407 9.85977 19.919 9.59641 19.8168C9.24796 19.6815 8.99907 19.5197 8.73774 19.2584C8.4764 18.997 8.31462 18.7488 8.17898 18.4002C8.07677 18.1373 7.95497 17.7422 7.92184 17.0142C7.88606 16.227 7.87891 15.9906 7.87891 13.9967C7.87891 12.0027 7.88606 11.7675 7.92184 10.9804C7.95513 10.2524 8.07677 9.85728 8.17898 9.59408C8.31431 9.24563 8.4764 8.99674 8.73774 8.73541C8.99907 8.47407 9.24796 8.31229 9.59641 8.17664C9.85962 8.07398 10.2549 7.95264 10.9829 7.9192C11.6717 7.88809 11.9386 7.87875 13.3303 7.8772V7.87906ZM17.9859 9.11872C17.4912 9.11872 17.0899 9.51959 17.0899 10.0144C17.0899 10.5091 17.4912 10.9104 17.9859 10.9104C18.4806 10.9104 18.8819 10.5091 18.8819 10.0144C18.8819 9.51975 18.4806 9.11841 17.9859 9.11841V9.11872ZM10.166 14C10.166 11.8825 11.8828 10.1656 14.0003 10.1655C16.1179 10.1655 17.8344 11.8824 17.8344 14C17.8344 16.1176 16.1181 17.8337 14.0005 17.8337C11.8829 17.8337 10.166 16.1176 10.166 14Z" fill="#373F51"/>
<path d="M14.0006 11.5112C15.3751 11.5112 16.4895 12.6255 16.4895 14.0001C16.4895 15.3746 15.3751 16.4891 14.0006 16.4891C12.626 16.4891 11.5117 15.3746 11.5117 14.0001C11.5117 12.6255 12.626 11.5112 14.0006 11.5112Z" fill="#373F51"/>
</svg>
