<svg width="28" height="28" viewBox="0 0 28 28" fill="none" xmlns="http://www.w3.org/2000/svg">
<path fill-rule="evenodd" clip-rule="evenodd" d="M14 0C6.26801 0 0 6.26801 0 14C0 21.732 6.26801 28 14 28C21.732 28 28 21.732 28 14C28 6.26801 21.732 0 14 0ZM15.1398 18.4196C15.0017 18.5652 14.7322 18.5946 14.7322 18.5946H13.8397C13.8397 18.5946 11.8706 18.7107 10.1359 16.9384C8.24417 15.0048 6.57377 11.1684 6.57377 11.1684C6.57377 11.1684 6.47736 10.9168 6.5818 10.7956C6.69939 10.6587 7.02004 10.6501 7.02004 10.6501L9.1535 10.6364C9.1535 10.6364 9.35436 10.6687 9.49825 10.7727C9.6173 10.8587 9.68377 11.0186 9.68377 11.0186C9.68377 11.0186 10.0285 11.8746 10.485 12.6489C11.3768 14.161 11.7917 14.4915 12.0941 14.3294C12.5352 14.0936 12.403 12.1922 12.403 12.1922C12.403 12.1922 12.411 11.5025 12.181 11.1949C12.0028 10.9569 11.6668 10.8874 11.5185 10.868C11.398 10.8522 11.5952 10.5784 11.8508 10.4558C12.235 10.2715 12.9128 10.2608 13.7141 10.2686C14.3385 10.2751 14.5182 10.3131 14.7622 10.3712C15.3283 10.5053 15.3107 10.9351 15.2725 11.8627C15.2611 12.1401 15.2479 12.462 15.2479 12.8339C15.2479 12.9174 15.2454 13.0065 15.2428 13.0982C15.2296 13.5734 15.2144 14.1176 15.5335 14.3201C15.6971 14.4234 16.0966 14.3352 17.0965 12.669C17.5705 11.8789 17.9255 10.9505 17.9255 10.9505C17.9255 10.9505 18.0036 10.7848 18.1242 10.7139C18.2476 10.6415 18.4141 10.6637 18.4141 10.6637L20.6593 10.6501C20.6593 10.6501 21.3342 10.5705 21.443 10.8702C21.5577 11.1835 21.1911 11.9162 20.2737 13.1164C19.4035 14.2551 18.98 14.6744 19.0189 15.0452C19.0473 15.3162 19.3226 15.5612 19.8508 16.0422C20.9535 17.0472 21.2491 17.5759 21.3201 17.703C21.326 17.7135 21.3304 17.7213 21.3335 17.7263C21.828 18.5315 20.785 18.5946 20.785 18.5946L18.7903 18.6218C18.7903 18.6218 18.3623 18.705 17.7984 18.325C17.503 18.1261 17.2144 17.8013 16.9395 17.4919C16.5197 17.0194 16.1318 16.5829 15.8008 16.686C15.245 16.8595 15.2618 18.0346 15.2618 18.0346C15.2618 18.0346 15.2661 18.2863 15.1398 18.4196Z" fill="#373F51"/>
</svg>
