<svg width="28" height="27" viewBox="0 0 28 27" fill="none" xmlns="http://www.w3.org/2000/svg">
<path fill-rule="evenodd" clip-rule="evenodd" d="M0 13.4815C0 20.9271 6.26801 26.963 14 26.963C21.732 26.963 28 20.9271 28 13.4815C28 6.03586 21.732 0 14 0C6.26801 0 0 6.03586 0 13.4815ZM22.7857 12.9655C22.7838 17.3845 19.0508 20.9801 14.4609 20.9819H14.4575C13.0642 20.9814 11.6952 20.6448 10.4792 20.0061L6.06611 21.1209L7.24713 16.9669C6.51862 15.7511 6.13528 14.372 6.1359 12.9591C6.13773 8.53916 9.87225 4.94314 14.4608 4.94314C16.6878 4.94407 18.778 5.77892 20.3497 7.29421C21.9215 8.80942 22.7866 10.8235 22.7857 12.9655Z" fill="#373F51"/>
<path fill-rule="evenodd" clip-rule="evenodd" d="M8.06615 19.2164L10.685 18.5548L10.9376 18.6993C12 19.3063 13.2178 19.6275 14.4594 19.628H14.4622C18.2759 19.628 21.3798 16.6389 21.3813 12.965C21.3821 11.1846 20.663 9.51057 19.3567 8.25112C18.0503 6.99167 16.313 6.29774 14.4649 6.29712C10.6482 6.29712 7.54424 9.28589 7.54273 12.9596C7.54219 14.2186 7.908 15.4447 8.60064 16.5055L8.76515 16.7576L8.06615 19.2164ZM18.3721 14.6914C18.5172 14.7589 18.6152 14.8045 18.657 14.8718C18.709 14.9553 18.709 15.3563 18.5357 15.8243C18.3623 16.2922 17.5313 16.7192 17.1316 16.7767C16.7733 16.8283 16.3198 16.8498 15.8215 16.6973C15.5194 16.605 15.132 16.4818 14.6357 16.2754C12.6856 15.4646 11.3678 13.6445 11.1187 13.3006C11.1013 13.2765 11.0891 13.2596 11.0823 13.2509L11.0806 13.2487C10.9705 13.1073 10.2329 12.1596 10.2329 11.1788C10.2329 10.2561 10.7036 9.77249 10.9202 9.54989C10.9351 9.53464 10.9487 9.52061 10.9609 9.50775C11.1516 9.30721 11.377 9.25708 11.5156 9.25708C11.6543 9.25708 11.7931 9.25831 11.9143 9.26418C11.9293 9.2649 11.9448 9.26481 11.9609 9.26472C12.0821 9.26404 12.2332 9.26318 12.3823 9.60802C12.4397 9.74072 12.5236 9.93746 12.6121 10.145C12.7911 10.5646 12.9889 11.0282 13.0236 11.0953C13.0757 11.1956 13.1103 11.3125 13.041 11.4462C13.0306 11.4663 13.021 11.4852 13.0118 11.5033C12.9597 11.6057 12.9214 11.681 12.833 11.7804C12.7982 11.8195 12.7623 11.8616 12.7264 11.9037C12.6548 11.9876 12.5833 12.0715 12.521 12.1313C12.4168 12.2312 12.3084 12.3396 12.4298 12.5401C12.5511 12.7406 12.9686 13.3965 13.5869 13.9277C14.2517 14.4986 14.8294 14.74 15.1222 14.8623C15.1794 14.8862 15.2257 14.9055 15.2597 14.9219C15.4677 15.0222 15.589 15.0054 15.7103 14.8718C15.8317 14.7381 16.2303 14.2869 16.369 14.0864C16.5076 13.8859 16.6463 13.9193 16.837 13.9861C17.0277 14.053 18.0504 14.5375 18.2584 14.6378C18.299 14.6574 18.3369 14.675 18.3721 14.6914Z" fill="#373F51"/>
</svg>
